[Header]
FileType HTR
DataType HTRS
FileVersion 1
NumSegments 64
NumFrames 4
DataFrameRate 24
EulerRotationOrder ZYX
CalibrationUnits mm
RotationUnits Degrees
GlobalAxisofGravity Y
BoneLengthAxis Y
ScaleFactor 1.0
[SegmentNames&Hierarchy]
Hips	GLOBAL
Spine	Hips
Spine1	Spine
Spine2	Spine1
Neck	Spine2
Head	Neck
LeftEye	Head
RightEye	Head
LeftShoulder	Spine2
LeftArm	LeftShoulder
LeftForeArm	LeftArm
LeftHand	LeftForeArm
LeftHandThumb1	LeftHand
LeftHandThumb2	LeftHandThumb1
LeftHandThumb3	LeftHandThumb2
LeftHandThumb4	LeftHandThumb3
LeftHandIndex1	LeftHand
LeftHandIndex2	LeftHandIndex1
LeftHandIndex3	LeftHandIndex2
LeftHandIndex4	LeftHandIndex3
LeftHandMiddle1	LeftHand
LeftHandMiddle2	LeftHandMiddle1
LeftHandMiddle3	LeftHandMiddle2
LeftHandMiddle4	LeftHandMiddle3
LeftHandRing1	LeftHand
LeftHandRing2	LeftHandRing1
LeftHandRing3	LeftHandRing2
LeftHandRing4	LeftHandRing3
LeftHandPinky1	LeftHand
LeftHandPinky2	LeftHandPinky1
LeftHandPinky3	LeftHandPinky2
LeftHandPinky4	LeftHandPinky3
RightShoulder	Spine2
RightArm	RightShoulder
RightForeArm	RightArm
RightHand	RightForeArm
RightHandPinky1	RightHand
RightHandPinky2	RightHandPinky1
RightHandPinky3	RightHandPinky2
RightHandPinky4	RightHandPinky3
RightHandRing1	RightHand
RightHandRing2	RightHandRing1
RightHandRing3	RightHandRing2
RightHandRing4	RightHandRing3
RightHandMiddle1	RightHand
RightHandMiddle2	RightHandMiddle1
RightHandMiddle3	RightHandMiddle2
RightHandMiddle4	RightHandMiddle3
RightHandIndex1	RightHand
RightHandIndex2	RightHandIndex1
RightHandIndex3	RightHandIndex2
RightHandIndex4	RightHandIndex3
RightHandThumb1	RightHand
RightHandThumb2	RightHandThumb1
RightHandThumb3	RightHandThumb2
RightHandThumb4	RightHandThumb3
LeftUpLeg	Hips
LeftLeg	LeftUpLeg
LeftFoot	LeftLeg
LeftToeBase	LeftFoot
RightUpLeg	Hips
RightLeg	RightUpLeg
RightFoot	RightLeg
RightToeBase	RightFoot
[BasePosition]
Hips	0	0	0	0	0	0	1
Spine	0	0	0	0	0	0	1
Spine1	0	0	0	0	0	0	1
Spine2	0	0	0	0	0	0	1
Neck	0	0	0	0	0	0	1
Head	0	0	0	0	0	0	1
LeftEye	0	0	0	0	0	0	1
RightEye	0	0	0	0	0	0	1
LeftShoulder	0	0	0	0	0	0	1
LeftArm	0	0	0	0	0	0	1
LeftForeArm	0	0	0	0	0	0	1
LeftHand	0	0	0	0	0	0	1
LeftHandThumb1	0	0	0	0	0	0	1
LeftHandThumb2	0	0	0	0	0	0	1
LeftHandThumb3	0	0	0	0	0	0	1
LeftHandThumb4	0	0	0	0	0	0	1
LeftHandIndex1	0	0	0	0	0	0	1
LeftHandIndex2	0	0	0	0	0	0	1
LeftHandIndex3	0	0	0	0	0	0	1
LeftHandIndex4	0	0	0	0	0	0	1
LeftHandMiddle1	0	0	0	0	0	0	1
LeftHandMiddle2	0	0	0	0	0	0	1
LeftHandMiddle3	0	0	0	0	0	0	1
LeftHandMiddle4	0	0	0	0	0	0	1
LeftHandRing1	0	0	0	0	0	0	1
LeftHandRing2	0	0	0	0	0	0	1
LeftHandRing3	0	0	0	0	0	0	1
LeftHandRing4	0	0	0	0	0	0	1
LeftHandPinky1	0	0	0	0	0	0	1
LeftHandPinky2	0	0	0	0	0	0	1
LeftHandPinky3	0	0	0	0	0	0	1
LeftHandPinky4	0	0	0	0	0	0	1
RightShoulder	0	0	0	0	0	0	1
RightArm	0	0	0	0	0	0	1
RightForeArm	0	0	0	0	0	0	1
RightHand	0	0	0	0	0	0	1
RightHandPinky1	0	0	0	0	0	0	1
RightHandPinky2	0	0	0	0	0	0	1
RightHandPinky3	0	0	0	0	0	0	1
RightHandPinky4	0	0	0	0	0	0	1
RightHandRing1	0	0	0	0	0	0	1
RightHandRing2	0	0	0	0	0	0	1
RightHandRing3	0	0	0	0	0	0	1
RightHandRing4	0	0	0	0	0	0	1
RightHandMiddle1	0	0	0	0	0	0	1
RightHandMiddle2	0	0	0	0	0	0	1
RightHandMiddle3	0	0	0	0	0	0	1
RightHandMiddle4	0	0	0	0	0	0	1
RightHandIndex1	0	0	0	0	0	0	1
RightHandIndex2	0	0	0	0	0	0	1
RightHandIndex3	0	0	0	0	0	0	1
RightHandIndex4	0	0	0	0	0	0	1
RightHandThumb1	0	0	0	0	0	0	1
RightHandThumb2	0	0	0	0	0	0	1
RightHandThumb3	0	0	0	0	0	0	1
RightHandThumb4	0	0	0	0	0	0	1
LeftUpLeg	0	0	0	0	0	0	1
LeftLeg	0	0	0	0	0	0	1
LeftFoot	0	0	0	0	0	0	1
LeftToeBase	0	0	0	0	0	0	1
RightUpLeg	0	0	0	0	0	0	1
RightLeg	0	0	0	0	0	0	1
RightFoot	0	0	0	0	0	0	1
RightToeBase	0	0	0	0	0	0	1
[Hips]
89	-76.25027466	936.0267334	2.902005911	-1.099588871	-15.62222195	13.0904789	1.0
90	-67.86872101	938.6787109	-0.9211719036	1.130846381	-17.20442963	12.80693054	1.0
91	-61.49000549	937.4981079	-6.365260124	3.041524172	-18.49947357	12.12854958	1.0
92	-57.87736893	933.368042	-12.98001194	4.05170393	-18.6263237	11.20704174	1.0
[Spine]
89	9.234152094e-05	101.8158798	1.31520927	9.903705597	1.221301794	9.126266479	1.0
90	9.234152094e-05	101.8158798	1.31520927	9.957819939	1.187661886	9.129203796	1.0
91	9.234152094e-05	101.8158798	1.31520927	10.73217583	1.523866415	9.28626442	1.0
92	9.234152094e-05	101.8158798	1.31520927	12.44525146	2.003088951	9.618153572	1.0
[Spine1]
89	2.519402869e-06	100.8345108	-10.00804329	-1.081748009	-0.2822676897	3.156519413	1.0
90	2.519402869e-06	100.8345108	-10.00804329	-1.328119516	-0.2343678027	3.655451536	1.0
91	2.519402869e-06	100.8345108	-10.00804329	-1.443171501	-0.1176422834	3.877011299	1.0
92	2.519402869e-06	100.8345108	-10.00804329	-1.441154003	-0.03185537457	3.758952618	1.0
[Spine2]
89	3.4574864e-06	91.00010681	-13.73417091	-1.112013102	-0.4902704954	1.89964211	1.0
90	3.4574864e-06	91.00010681	-13.73417091	-1.358746648	-0.466361016	2.309974909	1.0
91	3.4574864e-06	91.00010681	-13.73417091	-1.474609733	-0.3741930425	2.440603971	1.0
92	3.4574864e-06	91.00010681	-13.73417091	-1.47578764	-0.3138720393	2.231437683	1.0
[Neck]
89	6.334285445e-06	166.7166901	-25.16167831	6.086977959	0.6882371306	-3.522530794	1.0
90	6.334285445e-06	166.7166901	-25.16167831	5.598885059	0.874145925	-3.35082078	1.0
91	6.334285445e-06	166.7166901	-25.16167831	4.970961571	0.9719665051	-3.23334074	1.0
92	6.334285445e-06	166.7166901	-25.16167831	4.373514652	0.9660105705	-3.129748583	1.0
[Head]
89	-4.242318937e-06	96.17874908	16.85007477	-6.703944683	12.92116356	-14.18334866	1.0
90	-4.242318937e-06	96.17874908	16.85007477	-9.145689011	14.58162308	-14.58477116	1.0
91	-4.242318937e-06	96.17874908	16.85007477	-12.57568741	15.06646156	-15.59993458	1.0
92	-4.242318937e-06	96.17874908	16.85007477	-16.23810959	14.19766712	-16.91897202	1.0
[LeftEye]
89	30.67560577	64.09507751	92.83554077	0	0	0	1.0
90	30.67560577	64.09507751	92.83554077	0	0	0	1.0
91	30.67560577	64.09507751	92.83554077	0	0	0	1.0
92	30.67560577	64.09507751	92.83554077	0	0	0	1.0
[RightEye]
89	-30.67550468	64.09500122	92.83547211	0	0	0	1.0
90	-30.67550468	64.09500122	92.83547211	0	0	0	1.0
91	-30.67550468	64.09500122	92.83547211	0	0	0	1.0
92	-30.67550468	64.09500122	92.83547211	0	0	0	1.0
[LeftShoulder]
89	45.70446396	109.4598465	-26.27988052	3.426613331	-10.68554306	-7.41437149	1.0
90	45.70446396	109.4598465	-26.27988052	2.699305058	-11.1191082	-6.970422268	1.0
91	45.70446396	109.4598465	-26.27988052	2.40555954	-11.76999378	-6.999233246	1.0
92	45.70446396	109.4598465	-26.27988052	2.610206842	-12.39670563	-7.741460323	1.0
[LeftArm]
89	105.9236984	-5.245829105	-22.32120132	-42.13320923	4.359708309	-10.45835018	1.0
90	105.9236984	-5.245829105	-22.32120132	-37.40323257	7.052043438	-8.63428688	1.0
91	105.9236984	-5.245829105	-22.32120132	-30.74598122	10.58664036	-7.808063984	1.0
92	105.9236984	-5.245829105	-22.32120132	-26.01170731	11.64095116	-9.143405914	1.0
[LeftForeArm]
89	278.4151917	-0.0008942864952	0.0003745891154	-29.85847855	-45.03607178	2.530191183	1.0
90	278.4151917	-0.0008942864952	0.0003745891154	-25.76017189	-34.31064224	1.869688034	1.0
91	278.4151917	-0.0008942864952	0.0003745891154	-16.151577	-31.36445045	-2.06931448	1.0
92	278.4151917	-0.0008942864952	0.0003745891154	-11.28965378	-35.64505005	-3.613716602	1.0
[LeftHand]
89	283.2883911	-0.0001744071778	0.0003780452244	-8.268152237	-5.614610672	12.17516708	1.0
90	283.2883911	-0.0001744071778	0.0003780452244	-6.139607906	-6.707791328	11.71975136	1.0
91	283.2883911	-0.0001744071778	0.0003780452244	-5.527377605	-7.595367432	10.65199566	1.0
92	283.2883911	-0.0001744071778	0.0003780452244	-8.388066292	-6.9161129	8.890271187	1.0
[LeftHandThumb1]
89	24.66140366	-15.7504921	26.82413483	-18.93897057	-0.5067094564	-10.93449402	1.0
90	24.66140366	-15.7504921	26.82413483	-19.05794525	-0.4637074471	-11.04748631	1.0
91	24.66140366	-15.7504921	26.82413483	-19.16660881	-0.4362959564	-11.15627098	1.0
92	24.66140366	-15.7504921	26.82413483	-19.26282692	-0.4276867211	-11.26003361	1.0
[LeftHandThumb2]
89	32.29803848	-18.6469059	18.64681244	31.19257736	31.36225319	31.22029686	1.0
90	32.29803848	-18.6469059	18.64681244	31.35439301	31.3811512	31.35554504	1.0
91	32.29803848	-18.6469059	18.64681244	31.48320007	31.40031624	31.46926689	1.0
92	32.29803848	-18.6469059	18.64681244	31.57225609	31.41999817	31.55717468	1.0
[LeftHandThumb3]
89	26.52565002	-15.31492996	15.31471634	-8.97394371	25.17496109	5.899971962	1.0
90	26.52565002	-15.31492996	15.31471634	-8.983992577	25.33592606	5.902969837	1.0
91	26.52565002	-15.31492996	15.31471634	-9.013076782	25.45903206	5.881659031	1.0
92	26.52565002	-15.31492996	15.31471634	-9.065085411	25.53664589	5.830882072	1.0
[LeftHandThumb4]
89	19.54566956	-11.2850008	11.28492165	0	0	0	1.0
90	19.54566956	-11.2850008	11.28492165	0	0	0	1.0
91	19.54566956	-11.2850008	11.28492165	0	0	0	1.0
92	19.54566956	-11.2850008	11.28492165	0	0	0	1.0
[LeftHandIndex1]
89	91.09301758	-5.170834064	22.6007309	-6.943764687	7.837507248	-83.82783508	1.0
90	91.09301758	-5.170834064	22.6007309	-6.972314835	7.875998974	-84.30370331	1.0
91	91.09301758	-5.170834064	22.6007309	-7.000036716	7.896893978	-84.72507477	1.0
92	91.09301758	-5.170834064	22.6007309	-7.026707649	7.896847248	-85.08098602	1.0
[LeftHandIndex2]
89	36.76409531	-6.939138257e-05	0.0002924251603	-2.962943077	4.712314606	-55.88634109	1.0
90	36.76409531	-6.939138257e-05	0.0002924251603	-2.991545677	4.722546101	-56.09636688	1.0
91	36.76409531	-6.939138257e-05	0.0002924251603	-3.018762827	4.732185364	-56.29580307	1.0
92	36.76409531	-6.939138257e-05	0.0002924251603	-3.044275761	4.741172314	-56.48271179	1.0
[LeftHandIndex3]
89	28.83062553	0.000385119667	-0.0004276481632	-0.9635674953	4.846746445	-47.53211212	1.0
90	28.83062553	0.000385119667	-0.0004276481632	-0.9762615561	4.860897541	-47.70672989	1.0
91	28.83062553	0.000385119667	-0.0004276481632	-0.9883609414	4.874310493	-47.87255478	1.0
92	28.83062553	0.000385119667	-0.0004276481632	-0.9997169971	4.886865616	-48.02788544	1.0
[LeftHandIndex4]
89	23.92720032	0.0003702590766	0.0003355443478	0	0	0	1.0
90	23.92720032	0.0003702590766	0.0003355443478	0	0	0	1.0
91	23.92720032	0.0003702590766	0.0003355443478	0	0	0	1.0
92	23.92720032	0.0003702590766	0.0003355443478	0	0	0	1.0
[LeftHandMiddle1]
89	95.33401489	-0.000339240476	0.0001393702551	-10.56776905	8.282892227	-81.68883514	1.0
90	95.33401489	-0.000339240476	0.0001393702551	-10.62436485	8.282044411	-82.12110901	1.0
91	95.33401489	-0.000339240476	0.0001393702551	-10.67851162	8.281217575	-82.50946808	1.0
92	95.33401489	-0.000339240476	0.0001393702551	-10.72969532	8.280477524	-82.8452301	1.0
[LeftHandMiddle2]
89	36.98236847	1.961359158e-05	0.0001791696704	-3.886085272	6.769126415	-84.02329254	1.0
90	36.98236847	1.961359158e-05	0.0001791696704	-3.911226749	6.777789593	-84.38883209	1.0
91	36.98236847	1.961359158e-05	0.0001791696704	-3.935148478	6.785790443	-84.73590851	1.0
92	36.98236847	1.961359158e-05	0.0001791696704	-3.957600594	6.793073654	-85.06099701	1.0
[LeftHandMiddle3]
89	29.50921631	-0.0003937608562	0.0001644795993	-2.346614838	4.628908634	-53.32648468	1.0
90	29.50921631	-0.0003937608562	0.0001644795993	-2.364014149	4.640673161	-53.52967834	1.0
91	29.50921631	-0.0003937608562	0.0001644795993	-2.380568504	4.651818752	-53.72268677	1.0
92	29.50921631	-0.0003937608562	0.0001644795993	-2.396116495	4.662202358	-53.90350723	1.0
[LeftHandMiddle4]
89	28.3390255	-0.0003893481917	-9.504223272e-05	0	0	0	1.0
90	28.3390255	-0.0003893481917	-9.504223272e-05	0	0	0	1.0
91	28.3390255	-0.0003893481917	-9.504223272e-05	0	0	0	1.0
92	28.3390255	-0.0003893481917	-9.504223272e-05	0	0	0	1.0
[LeftHandRing1]
89	91.04527283	-0.4393950403	-18.65084648	-15.75517941	8.014928818	-88.83705902	1.0
90	91.04527283	-0.4393950403	-18.65084648	-15.81789589	7.966967583	-89.25115204	1.0
91	91.04527283	-0.4393950403	-18.65084648	-15.87883186	7.93168211	-89.63614655	1.0
92	91.04527283	-0.4393950403	-18.65084648	-15.93766403	7.911632061	-89.98640442	1.0
[LeftHandRing2]
89	31.54026794	-6.55346812e-05	0.000104257444	-3.331178188	7.774742126	-95.52012634	1.0
90	31.54026794	-6.55346812e-05	0.000104257444	-3.330573797	7.786291599	-95.88909912	1.0
91	31.54026794	-6.55346812e-05	0.000104257444	-3.329953909	7.797035217	-96.23944092	1.0
92	31.54026794	-6.55346812e-05	0.000104257444	-3.329394579	7.80685854	-96.56762695	1.0
[LeftHandRing3]
89	29.37672424	-0.0004545861739	-6.864757597e-05	1.214313745	5.501222134	-47.4148674	1.0
90	29.37672424	-0.0004545861739	-6.864757597e-05	1.230813146	5.520083427	-47.58127975	1.0
91	29.37672424	-0.0004545861739	-6.864757597e-05	1.246398568	5.537959099	-47.7393074	1.0
92	29.37672424	-0.0004545861739	-6.864757597e-05	1.260989904	5.554680824	-47.88734436	1.0
[LeftHandRing4]
89	26.47452545	-0.0004980441299	7.070515267e-07	0	0	0	1.0
90	26.47452545	-0.0004980441299	7.070515267e-07	0	0	0	1.0
91	26.47452545	-0.0004980441299	7.070515267e-07	0	0	0	1.0
92	26.47452545	-0.0004980441299	7.070515267e-07	0	0	0	1.0
[LeftHandPinky1]
89	80.77777863	-4.886682034	-38.06066895	-22.13041687	6.092180729	-95.51679993	1.0
90	80.77777863	-4.886682034	-38.06066895	-22.17422485	5.976437092	-95.86994934	1.0
91	80.77777863	-4.886682034	-38.06066895	-22.22305107	5.890791893	-96.22015381	1.0
92	80.77777863	-4.886682034	-38.06066895	-22.27791786	5.841362	-96.5672226	1.0
[LeftHandPinky2]
89	36.00034332	-2.252215199e-05	-0.0002623879409	-0.360709846	9.97633934	-83.0770874	1.0
90	36.00034332	-2.252215199e-05	-0.0002623879409	-0.3737757802	10.0039587	-83.41976929	1.0
91	36.00034332	-2.252215199e-05	-0.0002623879409	-0.3862186968	10.0299902	-83.74525452	1.0
92	36.00034332	-2.252215199e-05	-0.0002623879409	-0.3978978992	10.05417061	-84.05013275	1.0
[LeftHandPinky3]
89	21.14211655	0.0001953828178	-2.864415183e-05	-1.768351555	4.769034863	-51.24821091	1.0
90	21.14211655	0.0001953828178	-2.864415183e-05	-1.755506277	4.779313087	-51.41322327	1.0
91	21.14211655	0.0001953828178	-2.864415183e-05	-1.743352413	4.789042473	-51.5699234	1.0
92	21.14211655	0.0001953828178	-2.864415183e-05	-1.732001662	4.798161507	-51.71677017	1.0
[LeftHandPinky4]
89	19.7568264	0.0001240565616	-0.0004430140834	0	0	0	1.0
90	19.7568264	0.0001240565616	-0.0004430140834	0	0	0	1.0
91	19.7568264	0.0001240565616	-0.0004430140834	0	0	0	1.0
92	19.7568264	0.0001240565616	-0.0004430140834	0	0	0	1.0
[RightShoulder]
89	-45.69969559	109.4617615	-26.28017426	1.684052467	0.4364768565	-0.1137216389	1.0
90	-45.69969559	109.4617615	-26.28017426	2.088377953	-0.1281707436	-3.994355917	1.0
91	-45.69969559	109.4617615	-26.28017426	2.275594473	-1.041645765	-4.871555805	1.0
92	-45.69969559	109.4617615	-26.28017426	1.836942315	-2.364664555	-0.8683356047	1.0
[RightArm]
89	-105.9284363	-5.247983932	-22.32098579	-48.29899597	30.17025566	-5.400297165	1.0
90	-105.9284363	-5.247983932	-22.32098579	-67.4810791	35.84372711	-12.15801716	1.0
91	-105.9284363	-5.247983932	-22.32098579	-79.81149292	38.38066101	-17.01543999	1.0
92	-105.9284363	-5.247983932	-22.32098579	-83.1138916	38.55886078	-19.13138199	1.0
[RightForeArm]
89	-278.4151917	-0.0003307921579	0.0001167631053	-577.0455322	69.6640625	-590.6942749	1.0
90	-278.4151917	-0.0003307921579	0.0001167631053	-596.5921631	70.52661133	-620.1074829	1.0
91	-278.4151917	-0.0003307921579	0.0001167631053	-610.9125977	68.26248932	-648.1994019	1.0
92	-278.4151917	-0.0003307921579	0.0001167631053	-611.9770508	63.91699219	-661.0702515	1.0
[RightHand]
89	-283.2883911	-1.581417109e-06	0.000558160129	-40.54789734	-1.027837038	-10.39111328	1.0
90	-283.2883911	-1.581417109e-06	0.000558160129	-48.3791008	4.880828381	-10.15080643	1.0
91	-283.2883911	-1.581417109e-06	0.000558160129	-55.93710327	10.51234245	-8.47277832	1.0
92	-283.2883911	-1.581417109e-06	0.000558160129	-62.59410095	14.24199486	-5.841255665	1.0
[RightHandPinky1]
89	-80.76674652	-4.88459301	-38.06010437	-21.21811485	-3.8035779	99.33282471	1.0
90	-80.76674652	-4.88459301	-38.06010437	-21.24912071	-3.661395788	99.68109894	1.0
91	-80.76674652	-4.88459301	-38.06010437	-21.27762985	-3.530120134	100.0015259	1.0
92	-80.76674652	-4.88459301	-38.06010437	-21.30335808	-3.41097641	100.2908478	1.0
[RightHandPinky2]
89	-36.00034332	0.0003967665543	0.0005081442068	0.6219946146	-9.105556488	87.39971924	1.0
90	-36.00034332	0.0003967665543	0.0005081442068	0.6158726811	-9.1303339	87.75337982	1.0
91	-36.00034332	0.0003967665543	0.0005081442068	0.6101985574	-9.153028488	88.07907867	1.0
92	-36.00034332	0.0003967665543	0.0005081442068	0.6050606966	-9.173376083	88.37378693	1.0
[RightHandPinky3]
89	-21.14211655	0.0001513792522	0.0001479376951	-1.132469058	-3.931255817	53.36707306	1.0
90	-21.14211655	0.0001513792522	0.0001479376951	-1.117768049	-3.938753843	53.54010391	1.0
91	-21.14211655	0.0001513792522	0.0001479376951	-1.104317546	-3.945630789	53.69898224	1.0
92	-21.14211655	0.0001513792522	0.0001479376951	-1.092283487	-3.951791525	53.84206009	1.0
[RightHandPinky4]
89	-19.7568264	-0.000185219571	-9.839841368e-06	0	0	0	1.0
90	-19.7568264	-0.000185219571	-9.839841368e-06	0	0	0	1.0
91	-19.7568264	-0.000185219571	-9.839841368e-06	0	0	0	1.0
92	-19.7568264	-0.000185219571	-9.839841368e-06	0	0	0	1.0
[RightHandRing1]
89	-91.03588104	-0.4391434789	-18.65072441	-15.13160133	-6.361361504	93.12837982	1.0
90	-91.03588104	-0.4391434789	-18.65072441	-15.18459892	-6.299965382	93.56260681	1.0
91	-91.03588104	-0.4391434789	-18.65072441	-15.2333622	-6.242928505	93.96337128	1.0
92	-91.03588104	-0.4391434789	-18.65072441	-15.27754402	-6.190765381	94.32714081	1.0
[RightHandRing2]
89	-31.54026794	0.0002399729856	0.0004885121016	-1.909654975	-6.70846653	100.1285477	1.0
90	-31.54026794	0.0002399729856	0.0004885121016	-1.90104568	-6.717068672	100.5101929	1.0
91	-31.54026794	0.0002399729856	0.0004885121016	-1.893091798	-6.724832535	100.8616028	1.0
92	-31.54026794	0.0002399729856	0.0004885121016	-1.885906696	-6.731629848	101.1794662	1.0
[RightHandRing3]
89	-29.37672424	-0.0004160065437	-0.0003966063377	1.83455503	-4.819550514	49.57141113	1.0
90	-29.37672424	-0.0004160065437	-0.0003966063377	1.8530128	-4.835764885	49.74623108	1.0
91	-29.37672424	-0.0004160065437	-0.0003966063377	1.86991787	-4.850585938	49.90682983	1.0
92	-29.37672424	-0.0004160065437	-0.0003966063377	1.885087252	-4.863925934	50.05146027	1.0
[RightHandRing4]
89	-26.47452545	0.0002460821415	-2.294923434e-05	0	0	0	1.0
90	-26.47452545	0.0002460821415	-2.294923434e-05	0	0	0	1.0
91	-26.47452545	0.0002460821415	-2.294923434e-05	0	0	0	1.0
92	-26.47452545	0.0002460821415	-2.294923434e-05	0	0	0	1.0
[RightHandMiddle1]
89	-95.32502747	-0.0001631230261	0.0001679184206	-10.00952816	-7.066913128	86.0643158	1.0
90	-95.32502747	-0.0001631230261	0.0001679184206	-10.05652237	-7.061860561	86.53127289	1.0
91	-95.32502747	-0.0001631230261	0.0001679184206	-10.09977531	-7.056852341	86.96248627	1.0
92	-95.32502747	-0.0001631230261	0.0001679184206	-10.13894272	-7.052027225	87.35419464	1.0
[RightHandMiddle2]
89	-36.98236847	0.000150669599	-0.0002254552383	-3.038615465	-5.659231663	88.62502289	1.0
90	-36.98236847	0.000150669599	-0.0002254552383	-3.057057858	-5.664392948	89.00095367	1.0
91	-36.98236847	0.000150669599	-0.0002254552383	-3.074068546	-5.668981075	89.34722137	1.0
92	-36.98236847	0.000150669599	-0.0002254552383	-3.089489698	-5.672895432	89.66046906	1.0
[RightHandMiddle3]
89	-29.50921631	-3.113244929e-06	-3.03402544e-06	-2.044710636	-3.78546524	55.92685699	1.0
90	-29.50921631	-3.113244929e-06	-3.03402544e-06	-2.059737921	-3.79455328	56.13927078	1.0
91	-29.50921631	-3.113244929e-06	-3.03402544e-06	-2.0735569	-3.802885294	56.33445358	1.0
92	-29.50921631	-3.113244929e-06	-3.03402544e-06	-2.086041689	-3.810355902	56.51030731	1.0
[RightHandMiddle4]
89	-28.3390255	8.05324089e-05	0.0005378770875	0	0	0	1.0
90	-28.3390255	8.05324089e-05	0.0005378770875	0	0	0	1.0
91	-28.3390255	8.05324089e-05	0.0005378770875	0	0	0	1.0
92	-28.3390255	8.05324089e-05	0.0005378770875	0	0	0	1.0
[RightHandIndex1]
89	-91.08280945	-5.167889595	22.60116386	-5.985861778	-6.926551819	88.64573669	1.0
90	-91.08280945	-5.167889595	22.60116386	-6.001796246	-6.977454185	89.16851044	1.0
91	-91.08280945	-5.167889595	22.60116386	-6.01625967	-7.024242878	89.65171814	1.0
92	-91.08280945	-5.167889595	22.60116386	-6.029107094	-7.066683292	90.0912323	1.0
[RightHandIndex2]
89	-36.76409531	0.0001922715601	0.0003235567128	-2.757364511	-3.820226192	58.58546448	1.0
90	-36.76409531	0.0001922715601	0.0003235567128	-2.783543348	-3.827844381	58.8034668	1.0
91	-36.76409531	0.0001922715601	0.0003235567128	-2.807590961	-3.8348279	59.00382614	1.0
92	-36.76409531	0.0001922715601	0.0003235567128	-2.829334259	-3.841044664	59.18454361	1.0
[RightHandIndex3]
89	-28.83062553	-0.0004960121587	0.0004044897505	-0.7038246393	-4.10900116	49.77674484	1.0
90	-28.83062553	-0.0004960121587	0.0004044897505	-0.7146312594	-4.120826721	49.95948792	1.0
91	-28.83062553	-0.0004960121587	0.0004044897505	-0.7245734334	-4.131663799	50.12721634	1.0
92	-28.83062553	-0.0004960121587	0.0004044897505	-0.7335318923	-4.141434669	50.27830887	1.0
[RightHandIndex4]
89	-23.92720032	0.0002681470069	0.0002802013478	0	0	0	1.0
90	-23.92720032	0.0002681470069	0.0002802013478	0	0	0	1.0
91	-23.92720032	0.0002681470069	0.0002802013478	0	0	0	1.0
92	-23.92720032	0.0002681470069	0.0002802013478	0	0	0	1.0
[RightHandThumb1]
89	-24.64805984	-15.72714233	26.82626534	-21.40220833	2.786543846	12.28196144	1.0
90	-24.64805984	-15.72714233	26.82626534	-21.5264473	2.737918615	12.39623356	1.0
91	-24.64805984	-15.72714233	26.82626534	-21.64065933	2.693349361	12.50147343	1.0
92	-24.64805984	-15.72714233	26.82626534	-21.74367142	2.653098106	12.59656048	1.0
[RightHandThumb2]
89	-32.29771805	-18.6470871	18.64718437	34.57142639	-33.13030243	-34.35505295	1.0
90	-32.29771805	-18.6470871	18.64718437	34.76658249	-33.14548874	-34.50796127	1.0
91	-32.29771805	-18.6470871	18.64718437	34.94626617	-33.15908432	-34.64866638	1.0
92	-32.29771805	-18.6470871	18.64718437	35.10877228	-33.17098236	-34.77582932	1.0
[RightHandThumb3]
89	-26.52605057	-15.31449318	15.31445599	-5.790925503	-32.2428627	-6.33907795	1.0
90	-26.52605057	-15.31449318	15.31445599	-5.778389454	-32.43621063	-6.364691257	1.0
91	-26.52605057	-15.31449318	15.31445599	-5.766442776	-32.61406708	-6.388540268	1.0
92	-26.52605057	-15.31449318	15.31445599	-5.755069256	-32.77490997	-6.410534859	1.0
[RightHandThumb4]
89	-19.54580498	-11.28461742	11.28507042	0	0	0	1.0
90	-19.54580498	-11.28461742	11.28507042	0	0	0	1.0
91	-19.54580498	-11.28461742	11.28507042	0	0	0	1.0
92	-19.54580498	-11.28461742	11.28507042	0	0	0	1.0
[LeftUpLeg]
89	82.07781982	-67.51714325	-15.99555588	-23.79995155	42.57752991	-5.399938583	1.0
90	82.07781982	-67.51714325	-15.99555588	-25.84847069	38.63404465	-7.429859161	1.0
91	82.07781982	-67.51714325	-15.99555588	-27.76549149	36.08577728	-8.137111664	1.0
92	82.07781982	-67.51714325	-15.99555588	-29.36298752	36.45264816	-7.821740627	1.0
[LeftLeg]
89	-4.110157988e-06	-443.7047119	2.846426487	50.90729141	-12.00375271	-2.855617523	1.0
90	-4.110157988e-06	-443.7047119	2.846426487	48.51250076	-10.37809658	-2.479389906	1.0
91	-4.110157988e-06	-443.7047119	2.846426487	47.24218369	-8.140026093	-1.539538383	1.0
92	-4.110157988e-06	-443.7047119	2.846426487	47.71189499	-7.428429604	-2.079765797	1.0
[LeftFoot]
89	4.716393505e-06	-444.278717	-29.82190704	-15.90959644	-10.87829685	-6.812596321	1.0
90	4.716393505e-06	-444.278717	-29.82190704	-16.86101913	-6.457061768	-8.071381569	1.0
91	4.716393505e-06	-444.278717	-29.82190704	-17.94724083	-4.770258904	-8.534475327	1.0
92	4.716393505e-06	-444.278717	-29.82190704	-19.43423271	-4.995541573	-7.314237118	1.0
[LeftToeBase]
89	-2.960988058e-05	-87.28669739	107.1055984	-6.897278786	7.948699022e-06	7.284048138e-07	1.0
90	-2.960988058e-05	-87.28669739	107.1055984	-5.170225143	-1.007508672e-05	-1.42692727e-06	1.0
91	-2.960988058e-05	-87.28669739	107.1055984	-4.174667358	0.06229716539	0.9392409325	1.0
92	-2.960988058e-05	-87.28669739	107.1055984	-3.455018044	0.03330722451	0.7102179527	1.0
[RightUpLeg]
89	-82.07795715	-67.51662445	-15.99559402	-41.21047974	-27.26949883	-4.966882706	1.0
90	-82.07795715	-67.51662445	-15.99559402	-44.54726028	-28.20199776	-2.789215088	1.0
91	-82.07795715	-67.51662445	-15.99559402	-47.27333069	-27.2283535	-0.911860168	1.0
92	-82.07795715	-67.51662445	-15.99559402	-48.7916832	-26.14868546	0.379907757	1.0
[RightLeg]
89	8.435572454e-07	-443.7053833	2.861563921	55.28156281	8.631241798	-4.818657875	1.0
90	8.435572454e-07	-443.7053833	2.861563921	54.33362198	10.08093071	-2.761807203	1.0
91	8.435572454e-07	-443.7053833	2.861563921	53.96484375	10.49567413	-2.227062941	1.0
92	8.435572454e-07	-443.7053833	2.861563921	54.21625137	10.11785698	-2.789283752	1.0
[RightFoot]
89	9.644581951e-06	-444.2773132	-29.83789063	-21.74761009	6.913700104	0.9349207878	1.0
90	9.644581951e-06	-444.2773132	-29.83789063	-20.80376434	6.423982143	0.07449490577	1.0
91	9.644581951e-06	-444.2773132	-29.83789063	-19.86588287	5.959305286	-0.06239422411	1.0
92	9.644581951e-06	-444.2773132	-29.83789063	-19.0655117	5.813598633	0.1099234447	1.0
[RightToeBase]
89	-2.360438157e-05	-87.28668976	107.1056061	3.471628666	-1.165016101e-06	-0.0002225545177	1.0
90	-2.360438157e-05	-87.28668976	107.1056061	4.476441383	0.00320300716	-0.02704538405	1.0
91	-2.360438157e-05	-87.28668976	107.1056061	4.716052055	8.409244037e-05	-0.000813652412	1.0
92	-2.360438157e-05	-87.28668976	107.1056061	4.013522148	0.0001129958764	-0.001030375832	1.0
[EndOfFile]
